<svg xmlns="http://www.w3.org/2000/svg" width="48" height="48"><path d="M43.102 13.922c-.383-2.113-2.204-3.652-4.32-4.129-3.165-.672-9.02-1.152-15.36-1.152-6.332 0-12.285.48-15.453 1.152-2.11.477-3.938 1.918-4.32 4.129-.387 2.398-.77 5.758-.77 10.078 0 4.32.383 7.68.863 10.078.387 2.113 2.211 3.652 4.32 4.129 3.36.672 9.122 1.152 15.458 1.152 6.34 0 12.097-.48 15.457-1.152 2.113-.477 3.933-1.918 4.32-4.129.383-2.398.863-5.855.96-10.078-.194-4.32-.675-7.68-1.155-10.078zM18.238 30.719V17.28L29.953 24zm0 0" fill="#0b215e"/></svg>