<svg xmlns="http://www.w3.org/2000/svg" width="48" height="48"><path d="M15.996 4.8C9.824 4.8 4.801 9.829 4.801 16.005v16c0 6.172 5.027 11.195 11.203 11.195h16c6.172 0 11.195-5.027 11.195-11.203v-16c0-6.172-5.027-11.195-11.203-11.195zM35.2 11.2c.883 0 1.602.718 1.602 1.6a1.6 1.6 0 11-1.602-1.6zM24 14.397c5.293 0 9.602 4.309 9.602 9.602S29.293 33.602 24 33.602 14.398 29.293 14.398 24s4.309-9.602 9.602-9.602zm0 3.204A6.397 6.397 0 0017.602 24 6.397 6.397 0 0024 30.398 6.397 6.397 0 0030.398 24 6.397 6.397 0 0024 17.602zm0 0" fill="#0b215e"/></svg>