<svg width="80" height="80" fill="none" xmlns="http://www.w3.org/2000/svg"><circle cx="40" cy="40" r="40" fill="#fff"/><circle cx="40" cy="40" r="39" stroke="#00306E" stroke-opacity=".08" stroke-width="2"/><path opacity=".4" d="M56.5 58.333h-33a1.385 1.385 0 01-1.375-1.375c0-.751.623-1.375 1.375-1.375h33c.752 0 1.375.624 1.375 1.375 0 .752-.623 1.375-1.375 1.375zM52.87 24.38c-3.557-3.557-7.04-3.648-10.688 0l-2.219 2.218c-.183.184-.256.477-.183.734 1.393 4.858 5.28 8.745 10.138 10.138.074.018.147.037.22.037a.735.735 0 00.532-.22l2.2-2.219c1.815-1.796 2.695-3.538 2.695-5.298.018-1.815-.862-3.575-2.695-5.39z" fill="#3270FC"/><path d="M46.618 39.138a20.344 20.344 0 01-1.54-.806 16.162 16.162 0 01-1.173-.77 11.057 11.057 0 01-1.026-.789 2.232 2.232 0 01-.312-.275 15.504 15.504 0 01-1.889-1.906c-.054-.037-.146-.165-.274-.33-.184-.22-.496-.587-.77-1.009-.22-.275-.477-.678-.715-1.081-.294-.495-.55-.99-.807-1.504a20.462 20.462 0 01-.642-1.576L25.957 40.605c-.239.238-.459.697-.514 1.008l-.99 7.022c-.183 1.247.166 2.42.936 3.208.66.642 1.576.99 2.566.99.22 0 .44-.018.66-.055l7.04-.99c.33-.055.788-.275 1.008-.513l11.514-11.513a25.076 25.076 0 01-1.559-.624z" fill="#3270FC"/></svg>